<svg xmlns="http://www.w3.org/2000/svg" xmlns:xlink="http://www.w3.org/1999/xlink" width="500" zoomAndPan="magnify" viewBox="0 0 375 374.999991" height="500" preserveAspectRatio="xMidYMid meet" version="1.0"><defs><clipPath id="d92f0fc432"><path d="M 0 9 L 374 9 L 374 365.863281 L 0 365.863281 Z M 0 9 " clip-rule="nonzero"/></clipPath><clipPath id="c19a09fa93"><path d="M 0 8.863281 L 375 8.863281 L 375 365.863281 L 0 365.863281 Z M 0 8.863281 " clip-rule="nonzero"/></clipPath></defs><g clip-path="url(#d92f0fc432)"><path fill="#9f8b5a" d="M 373.402344 35.292969 L 370.335938 256.960938 C 370.324219 256.988281 370.304688 257.03125 370.285156 257.058594 L 370.285156 257.296875 C 370.15625 257.570312 367.0625 264.726562 360.800781 266.773438 C 358.835938 267.425781 335.585938 273.269531 304.808594 280.90625 L 302.765625 289.675781 L 302.460938 289.742188 L 276.566406 295.992188 C 288.042969 299.707031 302.421875 304.976562 308.269531 309.667969 C 318.632812 317.972656 313.878906 329.542969 313.832031 329.660156 L 313.734375 329.898438 L 313.484375 329.957031 L 170.402344 365.726562 L 170.253906 365.667969 L 68.644531 325.464844 L 69.253906 324.910156 C 69.253906 324.910156 70.183594 324.035156 70.890625 320.96875 C 71.679688 317.601562 77.164062 312.003906 77.390625 311.765625 L 77.519531 311.679688 L 88.542969 306.0625 L 80.546875 303.441406 L 80.03125 303.273438 L 80.03125 276.992188 L 51.722656 270.382812 L 16.882812 218.816406 L 16.882812 177.777344 L 0.589844 173.054688 L 0.589844 45.085938 C 0.613281 44.828125 1.152344 39.980469 9.535156 36.859375 C 17.640625 33.792969 168.242188 10.28125 174.640625 9.257812 L 174.839844 9.257812 L 242.40625 27.0625 L 318.910156 15.535156 L 319.007812 15.535156 L 369.308594 28.609375 L 369.132812 28.828125 C 370.277344 29.230469 371.292969 29.910156 372.109375 30.808594 C 372.128906 30.835938 372.148438 30.867188 372.167969 30.898438 C 372.257812 30.976562 372.347656 31.054688 372.425781 31.144531 C 373.371094 32.304688 373.726562 33.832031 373.402344 35.292969 Z M 373.402344 35.292969 " fill-opacity="1" fill-rule="nonzero"/></g><path fill="#baa97d" d="M 319.738281 16.234375 L 245.472656 27.347656 L 244.597656 27.476562 L 243.039062 27.714844 L 243.214844 27.714844 L 244.765625 27.527344 L 245.632812 27.398438 L 276.300781 35.46875 L 276.289062 35.5 L 245.691406 27.457031 L 244.851562 27.585938 L 244.765625 27.566406 L 243.214844 27.792969 L 242.917969 27.792969 L 210.773438 32.621094 L 210.683594 32.589844 L 88.78125 50.910156 L 88.613281 51 C 86.503906 52.445312 84.6875 54.289062 83.289062 56.425781 L 107.445312 62.863281 L 112.652344 64.25 L 128.589844 68.5 C 129.21875 67.453125 130.265625 66.714844 131.460938 66.457031 L 268.007812 43.835938 L 268.066406 43.773438 L 364.390625 27.8125 L 364.496094 27.84375 L 364.644531 27.84375 Z M 276.171875 36.40625 L 276.152344 36.425781 L 276.160156 36.40625 Z M 254.261719 30.03125 L 255.609375 30.375 L 255.570312 30.382812 L 254.261719 30.050781 L 249.132812 28.710938 Z M 211.699219 32.9375 C 211.433594 32.847656 211.175781 32.757812 210.910156 32.671875 L 210.921875 32.671875 C 211.1875 32.75 211.441406 32.835938 211.699219 32.9375 Z M 240.652344 43.085938 C 240.652344 43.085938 233.679688 40.582031 224.214844 37.273438 C 223.71875 37.09375 223.1875 36.90625 222.675781 36.730469 C 223.1875 36.90625 223.71875 37.09375 224.222656 37.273438 C 233.628906 40.5625 240.582031 43.046875 240.652344 43.085938 Z M 254.21875 30.710938 L 254.199219 30.699219 L 253.402344 30.875 L 244.851562 39.066406 L 253.390625 30.867188 L 254.179688 30.699219 L 253.707031 30.582031 L 253.699219 30.582031 L 253.738281 30.5625 L 254.28125 30.710938 L 254.320312 30.699219 L 276.113281 36.464844 L 264.59375 33.4375 L 276.113281 36.453125 L 254.261719 30.71875 Z M 17.523438 176.828125 L 17.011719 176.671875 L 16.496094 176.523438 L 1.152344 172.101562 L 1.152344 44.808594 C 1.183594 44.59375 1.242188 44.386719 1.320312 44.1875 L 79.894531 65.464844 L 79.894531 72.617188 C 75.988281 72.449219 70.683594 74.28125 70.683594 85.898438 C 70.683594 93.761719 70.617188 130.054688 70.617188 169.015625 L 70.617188 171.371094 C 70.617188 178.277344 70.617188 185.265625 70.617188 192.164062 Z M 89.460938 306.347656 L 133.570312 320.675781 L 133.757812 320.78125 L 89.402344 306.316406 L 89.046875 306.199219 L 88.886719 306.199219 L 88.515625 306.082031 L 80.488281 303.449219 L 80.488281 303.402344 L 88.574219 306.050781 L 88.949219 306.167969 Z M 17.523438 187.109375 L 67.136719 201.898438 L 66.285156 272.707031 L 52.097656 269.40625 L 17.523438 218.382812 Z M 81.867188 56.703125 C 59.324219 51.265625 27.03125 43.46875 6.84375 38.640625 C 7.691406 38.199219 8.570312 37.8125 9.476562 37.480469 C 11.519531 36.691406 23.234375 34.523438 39.535156 31.722656 C 46.425781 35.566406 52.371094 38.691406 55.371094 39.902344 C 61.886719 42.386719 68.871094 43.429688 75.824219 42.96875 C 75.824219 42.96875 163.785156 19.457031 175.035156 21.507812 C 180.230469 22.441406 194.601562 27.113281 208.574219 31.871094 L 88.542969 49.90625 L 88.386719 49.953125 C 88.246094 50.03125 85.277344 51.539062 81.867188 56.703125 Z M 126.980469 302.75 L 126.980469 303.144531 C 127.128906 310.515625 128.628906 315.816406 131.460938 318.960938 L 92.074219 306.121094 L 91.117188 305.804688 L 80.949219 302.496094 L 80.949219 65.21875 L 109.300781 73.453125 L 126.980469 78.570312 L 126.980469 302.0625 C 126.980469 302.296875 126.980469 302.523438 126.980469 302.75 Z M 204.964844 286.648438 L 204.71875 288.078125 L 204.945312 296.117188 L 204.945312 296.964844 L 183.21875 301.765625 L 183.21875 292.15625 Z M 169.316406 346.992188 L 169.414062 346.992188 L 169.414062 364.207031 L 70.25 325.117188 C 70.960938 323.917969 71.464844 322.617188 71.730469 321.246094 C 72.410156 318.308594 77.339844 313.1875 77.933594 312.566406 L 78.554688 312.25 Z M 264.59375 33.429688 L 254.210938 30.710938 L 254.171875 30.691406 Z M 341.984375 84.3125 C 341.984375 95.042969 340.050781 223.773438 340.050781 223.773438 C 340.050781 223.773438 339.074219 230.601562 334.242188 232.554688 C 329.628906 234.433594 189 267.207031 175.480469 270.371094 L 175.253906 270.421875 L 174.425781 270.617188 C 174.238281 270.675781 174.050781 270.714844 173.863281 270.746094 C 172.105469 271.011719 166.703125 270.648438 166.703125 255.976562 L 166.703125 254.222656 C 166.820312 254.832031 166.96875 255.402344 167.125 255.945312 C 167.136719 255.976562 167.136719 256.003906 167.148438 256.023438 C 167.402344 257.484375 167.75 258.675781 168.140625 259.652344 C 170.332031 264.980469 174.15625 263.53125 174.15625 263.53125 L 180.972656 261.957031 L 182.351562 261.640625 L 182.570312 261.640625 C 214.261719 254.320312 324.953125 228.710938 328.976562 227.105469 C 333.660156 225.230469 334.597656 218.6875 334.597656 218.6875 C 334.597656 218.6875 336.480469 95.230469 336.480469 84.953125 C 336.480469 84.519531 336.460938 84.117188 336.441406 83.722656 C 336.234375 80.449219 335.179688 78.480469 333.9375 77.308594 C 333.289062 76.695312 332.578125 76.292969 331.90625 76.035156 L 331.757812 75.988281 C 331.464844 75.867188 331.15625 75.789062 330.839844 75.730469 C 330.40625 75.640625 329.964844 75.59375 329.519531 75.574219 L 329.292969 75.496094 L 331.335938 75.148438 L 332.65625 74.921875 L 332.863281 74.921875 L 334.3125 74.675781 C 334.3125 74.675781 341.984375 73.582031 341.984375 84.3125 Z M 180.921875 292.445312 L 180.675781 293.882812 L 180.792969 298.179688 L 180.792969 298.574219 L 180.902344 302.761719 L 159.179688 307.570312 L 159.179688 297.972656 Z M 180.921875 292.445312 " fill-opacity="1" fill-rule="nonzero"/><path fill="#5d5da8" d="M 330.632812 77.457031 C 329.460938 76.480469 327.941406 75.996094 326.425781 76.125 L 257.101562 88.039062 L 209.796875 96.15625 C 188.417969 99.824219 172.1875 102.601562 170.449219 102.898438 C 169.246094 103.152344 168.210938 103.902344 167.601562 104.96875 C 165.441406 108.21875 165.390625 114.179688 165.390625 114.347656 C 165.402344 114.792969 165.539062 123.265625 165.726562 135.808594 C 166.21875 170.207031 167.246094 235.195312 167.246094 247.214844 C 167.246094 255.730469 169.199219 258.871094 170.835938 260.035156 C 171.722656 260.675781 172.855469 260.871094 173.902344 260.578125 L 184.128906 258.203125 L 185.507812 257.886719 L 185.734375 257.828125 C 220.910156 249.679688 322.441406 226.109375 326.1875 224.609375 C 330.476562 222.894531 331.414062 216.765625 331.414062 216.699219 C 331.421875 215.546875 333.257812 94.875 333.257812 84.855469 C 333.257812 81.445312 332.417969 79.011719 330.761719 77.554688 Z M 330.632812 77.457031 " fill-opacity="1" fill-rule="nonzero"/><path fill="#dac49d" d="M 208.789062 114.769531 C 209.253906 115.65625 208.917969 116.75 208.039062 117.214844 C 208.03125 117.226562 208.019531 117.226562 208 117.234375 C 207.042969 117.6875 206.046875 118.0625 205.023438 118.347656 C 204.875 118.347656 204.660156 118.199219 204.253906 118.023438 C 205.113281 117.765625 205.734375 117.628906 206.296875 117.390625 C 206.796875 117.214844 207.273438 116.96875 207.707031 116.664062 C 208.226562 116.320312 208.425781 115.648438 208.160156 115.078125 C 207.941406 114.496094 207.339844 114.152344 206.730469 114.257812 C 205.742188 114.386719 204.847656 114.890625 204.222656 115.65625 C 204.039062 115.804688 203.832031 115.925781 203.601562 115.992188 C 203.542969 115.765625 203.503906 115.539062 203.496094 115.3125 C 203.496094 114.503906 203.496094 113.707031 203.574219 112.761719 C 203.0625 112.871094 202.539062 112.949219 202.015625 113.007812 C 201.828125 113.007812 201.640625 112.890625 201.453125 112.800781 C 201.601562 112.671875 201.71875 112.445312 201.886719 112.40625 C 202.398438 112.289062 202.921875 112.199219 203.445312 112.128906 C 203.445312 111.628906 203.386719 111.195312 203.355469 110.691406 L 204.027344 110.574219 C 204.027344 111.035156 204.027344 111.460938 204.085938 112.070312 C 205.113281 111.757812 206 111.449219 206.925781 111.195312 C 207.203125 111.175781 207.480469 111.195312 207.746094 111.253906 C 207.546875 111.429688 207.398438 111.6875 207.171875 111.765625 C 206.441406 112.042969 205.703125 112.269531 204.953125 112.445312 C 204.34375 112.59375 204.007812 112.808594 204.15625 113.46875 C 204.195312 113.875 204.195312 114.277344 204.15625 114.683594 C 204.914062 114.277344 205.703125 113.945312 206.523438 113.65625 C 207.429688 113.324219 208.433594 113.785156 208.769531 114.691406 C 208.78125 114.722656 208.789062 114.742188 208.789062 114.769531 Z M 192.125 117.304688 C 191.847656 118.0625 191.503906 118.800781 191.097656 119.5 C 190.792969 119.804688 190.371094 119.964844 189.945312 119.925781 C 189.707031 119.925781 189.453125 119.414062 189.324219 119.085938 C 189.226562 118.683594 189.148438 118.277344 189.085938 117.875 C 189.007812 117.285156 188.464844 116.859375 187.875 116.9375 C 187.6875 116.957031 187.519531 117.027344 187.371094 117.144531 C 186.949219 117.414062 186.535156 117.699219 186.128906 118.003906 L 186.957031 113.824219 L 186.828125 113.589844 C 186.601562 113.785156 186.238281 113.945312 186.199219 114.179688 C 185.773438 116.398438 185.410156 118.613281 185.054688 120.839844 C 185.054688 121.039062 185.261719 121.265625 185.300781 121.332031 C 185.894531 120.152344 186.328125 119.066406 186.988281 118.042969 C 187.273438 117.757812 187.667969 117.617188 188.070312 117.667969 C 188.257812 117.667969 188.417969 118.199219 188.546875 118.515625 C 188.605469 118.78125 188.644531 119.046875 188.664062 119.3125 C 188.742188 120.160156 189.5 120.78125 190.351562 120.703125 C 190.664062 120.671875 190.972656 120.546875 191.21875 120.339844 C 191.988281 119.707031 192.441406 118.773438 192.46875 117.777344 C 192.519531 117.667969 192.253906 117.480469 192.125 117.324219 Z M 217.371094 114.378906 C 216.945312 114.101562 216.34375 113.925781 216.15625 113.539062 C 215.898438 112.878906 215.734375 112.199219 215.644531 111.5 C 216.039062 111.390625 216.421875 111.261719 216.796875 111.105469 C 217.003906 111.007812 217.121094 110.769531 217.289062 110.59375 C 217.074219 110.542969 216.847656 110.523438 216.628906 110.535156 C 216.265625 110.621094 215.898438 110.742188 215.546875 110.871094 C 215.425781 110.167969 215.316406 109.550781 215.210938 108.828125 L 214.488281 109.046875 C 214.597656 109.746094 214.714844 110.375 214.835938 111.085938 C 214.234375 111.183594 213.679688 111.273438 213.140625 111.382812 C 213.011719 111.382812 212.902344 111.570312 212.785156 111.65625 C 212.941406 111.746094 213.089844 111.914062 213.238281 111.902344 C 213.800781 111.84375 214.351562 111.726562 215.050781 111.609375 L 215.4375 113.84375 C 213.800781 114.121094 213.199219 114.523438 213.226562 115.34375 C 213.257812 116.160156 213.808594 116.464844 214.53125 116.523438 C 215.742188 116.625 216.207031 116.199219 216.5 114.703125 L 217.929688 115.332031 C 218.316406 114.59375 217.683594 114.585938 217.359375 114.367188 Z M 231.597656 109.835938 L 233.441406 111.726562 L 228.816406 112.839844 C 229.125 110.691406 229.398438 108.75 229.6875 106.710938 L 229.371094 106.503906 C 229.222656 106.75 228.976562 106.988281 228.9375 107.242188 C 228.699219 108.730469 228.53125 110.238281 228.335938 111.738281 C 228.257812 112.398438 228.238281 113.097656 227.308594 113.363281 C 227.496094 113.550781 227.761719 113.648438 228.03125 113.636719 C 229.625 113.285156 231.234375 112.9375 232.792969 112.476562 C 233.542969 112.25 234.09375 112.21875 234.617188 113.007812 C 234.746094 112.730469 234.832031 112.457031 234.726562 112.289062 C 233.71875 110.75 232.171875 109.507812 231.578125 109.835938 Z M 247.96875 110.1875 C 247.289062 110.5625 246.441406 110.308594 246.066406 109.628906 C 245.996094 109.5 245.945312 109.371094 245.917969 109.222656 C 245.523438 107.449219 245.277344 105.636719 244.972656 103.804688 L 244.269531 103.921875 C 244.578125 105.734375 244.832031 107.488281 245.1875 109.234375 C 245.375 110.347656 246.429688 111.097656 247.542969 110.910156 C 247.554688 110.910156 247.554688 110.910156 247.5625 110.910156 C 248.925781 110.769531 250.148438 110.023438 250.886719 108.867188 C 251.003906 108.703125 250.886719 108.386719 250.886719 108.277344 C 249.960938 108.988281 248.972656 109.628906 247.949219 110.179688 Z M 225.257812 107.597656 L 225.089844 107.292969 C 224.835938 107.363281 224.585938 107.46875 224.371094 107.617188 C 223.464844 108.640625 222.625 109.65625 221.679688 110.582031 C 220.742188 111.5 219.941406 112.082031 219.035156 112.851562 C 219.152344 112.949219 219.292969 113.117188 219.3125 113.097656 C 220.335938 112.398438 221.351562 111.675781 222.4375 110.910156 C 222.65625 112.148438 222.863281 113.363281 223.058594 114.574219 C 223.128906 114.996094 223.21875 115.363281 223.828125 115.019531 C 223.601562 113.667969 223.324219 112.335938 223.175781 110.929688 C 223.167969 110.425781 223.316406 109.941406 223.601562 109.527344 C 224.113281 108.859375 224.65625 108.207031 225.238281 107.597656 Z M 237.792969 104.671875 L 237.546875 104.613281 C 237.464844 104.925781 237.386719 105.234375 237.289062 105.636719 C 236.609375 106.011719 235.59375 105.695312 234.921875 106.308594 L 234.992188 106.582031 L 237.4375 106.160156 C 237.800781 106.839844 237.4375 106.957031 236.984375 107.074219 C 236.53125 107.195312 235.828125 107.074219 235.257812 107.792969 L 237.613281 107.402344 L 237.761719 107.714844 C 237.296875 108.742188 235.898438 108.328125 235.058594 109.175781 C 235.988281 109.507812 236.675781 108.75 237.515625 108.9375 L 235.96875 110.210938 L 236.480469 110.496094 C 238.679688 108.859375 238.660156 108.445312 237.78125 104.671875 Z M 240.207031 109.351562 C 240.296875 109.054688 240.386719 108.761719 240.472656 108.464844 C 240.472656 108.464844 240.472656 108.375 240.671875 108.128906 L 243.105469 107.707031 L 243.046875 107.402344 C 242.613281 107.488281 242.160156 107.539062 241.714844 107.546875 C 241.222656 107.546875 240.453125 108.207031 240.316406 107.363281 C 240.167969 106.515625 241.113281 106.96875 241.539062 106.761719 C 241.84375 106.652344 242.171875 106.574219 242.484375 106.523438 L 242.417969 106.160156 C 241.84375 106.246094 241.273438 106.316406 240.699219 106.414062 C 240.128906 106.515625 239.960938 106.289062 240.109375 105.636719 L 242.554688 105.214844 L 242.554688 104.867188 L 239.980469 105.152344 C 239.902344 104.878906 239.824219 104.632812 239.746094 104.375 L 239.429688 104.316406 C 239.351562 104.542969 239.300781 104.789062 239.300781 105.035156 C 239.476562 106.207031 239.664062 107.382812 239.890625 108.554688 C 239.972656 108.828125 240.078125 109.105469 240.207031 109.363281 Z M 255.234375 106.800781 C 255.214844 106.996094 255.167969 107.203125 255.109375 107.390625 C 254.84375 107.882812 254.554688 108.367188 254.269531 108.839844 C 253.816406 108.414062 253.351562 108 252.917969 107.546875 C 252.820312 107.402344 252.761719 107.222656 252.742188 107.046875 C 252.523438 105.863281 252.335938 104.660156 252.089844 103.222656 C 251.875 103.410156 251.539062 103.566406 251.558594 103.707031 C 251.753906 105.351562 251.773438 107.046875 252.722656 108.484375 C 253.164062 109.15625 253.746094 109.695312 254.65625 109.410156 C 255.335938 108.886719 255.71875 108.0625 255.679688 107.203125 C 255.691406 107.054688 255.441406 106.96875 255.226562 106.78125 Z M 195.160156 116.929688 L 194.789062 118.230469 L 194.480469 118.230469 C 194.3125 116.378906 194.15625 114.515625 193.96875 112.40625 C 193.753906 112.742188 193.445312 112.996094 193.457031 113.222656 C 193.523438 114.644531 193.632812 116.0625 193.800781 117.472656 C 193.929688 118.171875 194.136719 118.859375 194.402344 119.511719 C 194.453125 119.660156 194.679688 119.746094 194.828125 119.855469 C 194.945312 119.71875 195.035156 119.558594 195.101562 119.382812 C 195.230469 118.800781 195.347656 118.21875 195.429688 117.640625 C 195.449219 117.402344 195.449219 117.164062 195.429688 116.917969 L 195.160156 116.917969 Z M 212.09375 113.785156 L 211.808594 113.785156 L 211.414062 115.078125 L 211.097656 115.078125 C 210.988281 113.332031 210.878906 111.589844 210.761719 109.695312 C 210.585938 109.863281 210.21875 110.023438 210.21875 110.199219 C 210.101562 112.335938 210.398438 114.476562 211.097656 116.503906 C 211.167969 116.703125 211.441406 116.820312 211.628906 116.980469 L 211.828125 116.851562 C 211.480469 115.796875 212.320312 114.820312 212.09375 113.796875 Z M 178.46875 119.6875 C 178.554688 119.363281 178.695312 119.046875 178.851562 118.613281 C 178.566406 118.683594 178.28125 118.691406 178.269531 118.773438 C 178.023438 119.421875 177.914062 120.121094 177.953125 120.8125 C 178.191406 121.355469 178.675781 121.738281 179.257812 121.835938 C 180.726562 121.707031 182.183594 121.5 183.625 121.195312 C 183.742188 121.195312 183.820312 120.859375 183.980469 120.566406 C 182.363281 120.839844 181.03125 121.15625 179.679688 121.265625 C 178.664062 121.441406 178.191406 120.671875 178.457031 119.699219 Z M 180.378906 116.289062 L 179.355469 117.3125 L 179.550781 117.578125 C 180.46875 116.949219 181.40625 116.316406 182.3125 115.667969 C 182.421875 115.589844 182.382812 115.304688 182.421875 115.085938 L 177.453125 116.179688 L 177.453125 116.503906 C 178.40625 116.96875 179.355469 116.179688 180.371094 116.289062 Z M 198.554688 117.824219 C 197.441406 117.824219 197.066406 117.226562 197.527344 116.199219 C 197.609375 116.023438 197.707031 115.855469 197.863281 115.550781 C 197.558594 115.550781 197.242188 115.550781 197.222656 115.597656 C 196.957031 116.171875 196.820312 116.792969 196.828125 117.421875 C 197.027344 117.945312 197.46875 118.328125 198.011719 118.445312 C 198.957031 118.464844 199.894531 118.386719 200.824219 118.210938 C 200.949219 118.210938 201.058594 117.894531 201.296875 117.558594 C 200.59375 117.679688 200.222656 117.757812 199.835938 117.804688 C 199.414062 117.84375 198.988281 117.855469 198.5625 117.835938 Z M 241.242188 110.671875 C 241.242188 111.421875 241.035156 111.804688 240.21875 111.914062 C 238.648438 112.109375 238.667969 112.160156 238.335938 110.613281 C 238.246094 110.40625 238.128906 110.230469 237.980469 110.0625 L 237.703125 110.210938 C 237.773438 110.820312 237.890625 111.429688 238.039062 112.03125 C 238.175781 112.328125 238.441406 112.535156 238.757812 112.605469 C 239.578125 112.542969 240.394531 112.417969 241.195312 112.210938 C 241.421875 112.148438 241.648438 111.757812 241.695312 111.488281 C 241.746094 111.222656 241.578125 110.9375 241.5 110.664062 Z M 256.765625 103.074219 C 256.636719 103.074219 256.480469 103.183594 256.332031 103.261719 C 256.410156 103.390625 256.449219 103.597656 256.566406 103.648438 C 257.59375 104.128906 258.402344 104.988281 258.816406 106.039062 C 258.933594 106.167969 259.101562 106.238281 259.277344 106.238281 C 259.367188 106.238281 259.457031 106 259.488281 105.941406 C 259.011719 104.660156 258.015625 103.636719 256.753906 103.113281 Z M 199.992188 112.523438 C 198.851562 112.722656 197.726562 112.988281 196.621094 113.324219 C 196.453125 113.324219 196.335938 113.628906 196.199219 113.796875 L 196.375 114.03125 L 200.09375 113.007812 Z M 241.527344 109.726562 L 243.570312 111.675781 C 243.570312 111.363281 243.71875 111.125 243.640625 110.976562 C 243.214844 110.210938 242.40625 109.726562 241.527344 109.726562 Z M 236.5 112.5625 C 236.746094 112.128906 236.945312 111.675781 237.070312 111.195312 C 237.238281 110.671875 237.011719 110.414062 236.460938 110.496094 C 236.3125 111.222656 236.175781 111.953125 236.007812 112.761719 C 236.097656 112.730469 236.410156 112.710938 236.5 112.5625 Z M 240.503906 110.238281 C 239.230469 109.214844 238.699219 109.085938 238.214844 109.609375 C 239.003906 109.628906 239.476562 110.523438 240.503906 110.238281 Z M 214.84375 115.15625 C 214.746094 115.125 214.648438 115.125 214.550781 115.15625 L 214.925781 115.15625 M 81.867188 56.683594 C 81.246094 57.621094 80.605469 58.664062 79.972656 59.867188 L 79.914062 59.964844 L 79.914062 65.484375 L 1.320312 44.1875 C 1.695312 43.085938 2.9375 40.699219 6.84375 38.632812 C 27.03125 43.449219 59.324219 51.246094 81.867188 56.683594 Z M 174.957031 9.886719 C 171.367188 10.449219 86.402344 23.703125 39.535156 31.722656 C 46.425781 35.558594 52.371094 38.679688 55.371094 39.902344 C 61.886719 42.386719 68.871094 43.429688 75.824219 42.96875 C 75.824219 42.96875 163.785156 19.457031 175.035156 21.507812 C 180.230469 22.441406 194.601562 27.113281 208.574219 31.871094 L 240.40625 27.09375 Z M 112.644531 64.261719 L 107.425781 62.871094 L 83.269531 56.4375 C 83.160156 56.613281 83.03125 56.773438 82.914062 56.949219 C 82.203125 58.015625 81.542969 59.109375 80.941406 60.242188 L 80.941406 65.226562 L 109.28125 73.40625 L 126.960938 78.519531 L 126.960938 78.136719 C 126.960938 77.839844 126.371094 71.78125 128.589844 68.46875 Z M 112.644531 64.261719 " fill-opacity="1" fill-rule="nonzero"/><g clip-path="url(#c19a09fa93)"><path fill="#473e2a" d="M 262.5625 291.566406 C 277.175781 287.96875 291.496094 284.414062 304.503906 281.199219 L 302.765625 288.90625 L 275.414062 295.46875 L 275.285156 295.46875 L 274.355469 295.683594 L 273.46875 295.902344 L 154.691406 324.417969 C 152.679688 323.050781 150.945312 321.316406 149.574219 319.304688 C 170.261719 314.191406 216.828125 302.800781 261.0625 291.882812 L 261.410156 291.804688 L 262.386719 291.558594 Z M 361.007812 65.757812 C 361.007812 78.441406 358.71875 230.652344 358.71875 230.652344 C 358.71875 230.652344 357.574219 238.722656 351.847656 241.035156 C 346.117188 243.34375 167.738281 284.90625 163.0625 286.007812 L 162.964844 286.007812 L 162.835938 286.058594 C 162.421875 286.167969 162 286.226562 161.566406 286.226562 C 159 286.226562 153.8125 284.34375 153.8125 268.714844 C 153.8125 255.5625 152.898438 192.371094 152.214844 147.871094 C 151.832031 122.152344 151.515625 102.671875 151.515625 102.671875 C 151.515625 102.671875 151.515625 88.847656 158.390625 87.683594 C 161.230469 87.199219 195.082031 81.355469 233.679688 74.6875 L 347.617188 54.96875 L 348.925781 54.742188 L 349.144531 54.742188 L 351.855469 54.269531 C 351.847656 54.269531 361.007812 53.078125 361.007812 65.757812 Z M 165.714844 135.800781 C 166.210938 170.199219 167.234375 235.183594 167.234375 247.207031 C 167.234375 255.71875 169.1875 258.863281 170.824219 260.023438 C 171.710938 260.664062 172.847656 260.863281 173.890625 260.566406 L 184.117188 258.191406 L 185.5 257.875 L 185.726562 257.816406 C 220.898438 249.667969 322.429688 226.097656 326.175781 224.601562 C 330.46875 222.886719 331.402344 216.757812 331.402344 216.6875 C 331.414062 215.535156 333.246094 94.867188 333.246094 84.84375 C 333.246094 81.4375 332.410156 79.003906 330.753906 77.542969 L 330.644531 77.457031 C 329.472656 76.480469 327.953125 75.996094 326.433594 76.125 L 257.109375 88.039062 L 209.804688 96.15625 C 188.425781 99.824219 172.195312 102.601562 170.460938 102.898438 C 169.257812 103.152344 168.222656 103.902344 167.609375 104.96875 C 165.449219 108.21875 165.402344 114.179688 165.402344 114.347656 C 165.382812 114.78125 165.519531 123.265625 165.714844 135.800781 Z M 341.984375 84.3125 C 341.984375 73.582031 334.3125 74.675781 334.3125 74.675781 L 332.863281 74.921875 L 332.65625 74.921875 L 331.335938 75.148438 L 329.292969 75.496094 L 329.519531 75.574219 C 329.964844 75.582031 330.40625 75.632812 330.839844 75.730469 C 331.15625 75.789062 331.464844 75.867188 331.757812 75.988281 L 331.90625 76.035156 C 332.578125 76.292969 333.289062 76.695312 333.9375 77.308594 C 335.191406 78.480469 336.234375 80.449219 336.441406 83.722656 C 336.472656 84.117188 336.480469 84.519531 336.480469 84.953125 C 336.480469 95.230469 334.597656 218.6875 334.597656 218.6875 C 334.597656 218.6875 333.660156 225.230469 328.976562 227.105469 C 324.953125 228.710938 214.273438 254.320312 182.570312 261.640625 L 182.34375 261.640625 L 180.960938 261.957031 L 174.148438 263.53125 C 174.148438 263.53125 170.320312 264.992188 168.132812 259.652344 C 167.738281 258.683594 167.394531 257.492188 167.136719 256.023438 C 167.125 255.996094 167.125 255.964844 167.117188 255.945312 C 166.960938 255.402344 166.820312 254.832031 166.691406 254.222656 L 166.691406 255.976562 C 166.691406 270.636719 172.097656 271.011719 173.851562 270.746094 C 174.039062 270.714844 174.226562 270.667969 174.414062 270.617188 L 175.242188 270.421875 L 175.46875 270.371094 C 188.988281 267.207031 329.617188 234.433594 334.234375 232.554688 C 339.074219 230.601562 340.042969 223.773438 340.042969 223.773438 C 340.042969 223.773438 341.984375 95.042969 341.984375 84.3125 Z M 228.019531 294.207031 L 225.476562 294.789062 L 155.097656 311.71875 L 155.097656 296.316406 L 228.738281 279.730469 L 228.738281 294.039062 Z M 180.675781 293.882812 L 180.921875 292.445312 L 159.1875 297.972656 L 159.1875 307.570312 L 180.914062 302.761719 L 180.804688 298.574219 L 180.804688 298.179688 Z M 204.726562 288.078125 L 204.972656 286.648438 L 183.230469 292.167969 L 183.230469 301.773438 L 204.953125 296.976562 L 204.953125 296.128906 Z M 374.496094 35.46875 L 371.429688 257.257812 L 371.429688 257.34375 C 371.300781 257.628906 368.195312 264.734375 361.914062 266.832031 C 359.871094 267.484375 336.5625 273.335938 305.65625 280.992188 L 303.613281 289.773438 L 303.308594 289.84375 L 277.296875 296.089844 C 288.792969 299.8125 303.230469 305.085938 309.109375 309.777344 C 319.519531 318.101562 314.75 329.691406 314.6875 329.800781 L 314.589844 330.035156 L 314.34375 330.09375 L 170.667969 365.863281 L 170.507812 365.804688 L 68.484375 325.53125 L 69.097656 324.980469 C 69.105469 324.96875 70.035156 324.09375 70.742188 321.027344 C 71.53125 317.667969 77.035156 312.0625 77.273438 311.824219 L 77.398438 311.738281 L 88.464844 306.121094 L 88.839844 306.238281 L 88.988281 306.238281 L 89.054688 306.386719 L 89.273438 306.820312 L 78.554688 312.257812 L 77.933594 312.574219 C 77.351562 313.1875 72.421875 318.320312 71.730469 321.253906 C 71.464844 322.625 70.960938 323.9375 70.25 325.128906 L 169.367188 364.199219 L 170.6875 364.71875 L 313.792969 329.050781 C 316.050781 323.007812 314.5 316.199219 309.847656 311.726562 C 309.394531 311.285156 308.910156 310.859375 308.417969 310.464844 C 302.460938 305.695312 286.96875 300.160156 275.292969 296.445312 L 250.070312 302.496094 L 254.261719 306.917969 L 168.851562 329.097656 L 162.867188 323.421875 L 154.445312 325.464844 L 154.257812 325.363281 C 151.941406 323.855469 149.957031 321.886719 148.460938 319.570312 L 138.796875 321.945312 C 138.5 321.996094 138.195312 322.023438 137.886719 322.015625 C 136.390625 321.996094 134.921875 321.570312 133.648438 320.800781 L 133.460938 320.695312 L 89.410156 306.335938 L 88.898438 306.160156 L 88.523438 306.042969 L 80.4375 303.390625 L 79.925781 303.222656 L 79.925781 276.933594 L 51.496094 270.320312 L 16.507812 218.6875 L 16.507812 177.589844 L 0.136719 172.867188 L 0.136719 44.761719 C 0.136719 44.503906 0.730469 39.648438 9.132812 36.464844 C 17.265625 33.390625 168.496094 9.886719 174.925781 8.863281 L 175.113281 8.863281 L 242.960938 26.71875 L 319.796875 15.171875 L 319.886719 15.171875 L 370.394531 28.285156 L 370.226562 28.480469 C 371.371094 28.886719 372.398438 29.566406 373.214844 30.464844 C 374.398438 31.84375 374.871094 33.695312 374.496094 35.46875 Z M 372.445312 31.132812 C 371.648438 30.277344 370.640625 29.644531 369.515625 29.300781 L 369.371094 29.300781 L 369.242188 29.191406 L 368.5625 29.003906 C 367.671875 28.796875 366.777344 28.679688 365.867188 28.660156 L 266.65625 45.105469 L 131.726562 67.492188 C 130.90625 67.660156 130.175781 68.125 129.683594 68.792969 C 127.425781 71.660156 128.039062 78.054688 128.039062 78.136719 L 128.039062 302.070312 C 128.039062 302.277344 128.039062 302.476562 128.039062 302.679688 L 128.039062 303.074219 C 128.144531 310.917969 129.921875 316.476562 133.15625 319.195312 C 133.410156 319.414062 133.679688 319.609375 133.953125 319.789062 C 134.339844 320.035156 134.742188 320.25 135.167969 320.429688 L 135.316406 320.476562 C 136.371094 320.921875 137.515625 321.089844 138.648438 320.96875 L 148.007812 318.683594 L 148.527344 318.554688 L 149.050781 318.4375 C 168.597656 313.6875 212.746094 302.820312 255.699219 292.226562 L 258.164062 291.617188 C 274.394531 287.617188 290.402344 283.664062 304.796875 280.097656 L 305.359375 279.96875 L 305.914062 279.820312 C 336.542969 272.234375 359.636719 266.460938 361.558594 265.820312 C 367.042969 263.996094 370.039062 257.808594 370.414062 256.988281 L 373.480469 35.320312 C 373.765625 33.824219 373.390625 32.296875 372.445312 31.132812 Z M 275.414062 295.46875 L 302.765625 288.90625 L 304.445312 281.179688 C 291.445312 284.394531 277.128906 287.949219 262.503906 291.546875 L 262.375 291.546875 L 261.398438 291.792969 L 261.054688 291.871094 C 216.816406 302.789062 170.261719 314.179688 149.5625 319.292969 C 150.933594 321.304688 152.671875 323.039062 154.683594 324.410156 L 273.460938 295.890625 L 274.347656 295.675781 L 275.273438 295.457031 Z M 17.523438 218.382812 L 52.097656 269.40625 L 66.285156 272.707031 L 79.925781 275.890625 L 79.925781 195.90625 L 17.53125 177.914062 L 17.53125 218.382812 Z M 1.164062 172.109375 L 16.507812 176.535156 L 17.019531 176.683594 L 17.53125 176.839844 L 70.625 192.203125 L 79.925781 194.890625 L 79.925781 59.964844 L 79.984375 59.867188 C 80.613281 58.675781 81.257812 57.628906 81.878906 56.683594 C 85.328125 51.539062 88.246094 50.03125 88.394531 49.964844 L 88.554688 49.914062 L 208.601562 31.851562 L 240.433594 27.074219 L 174.957031 9.886719 C 171.367188 10.46875 86.402344 23.722656 39.535156 31.761719 C 23.234375 34.550781 11.519531 36.71875 9.476562 37.488281 C 8.578125 37.8125 7.703125 38.199219 6.84375 38.632812 C 2.9375 40.710938 1.695312 43.085938 1.320312 44.1875 C 1.242188 44.386719 1.191406 44.601562 1.152344 44.808594 L 1.152344 172.109375 Z M 131.46875 318.960938 C 128.640625 315.828125 127.128906 310.515625 126.992188 303.144531 L 126.992188 302.75 C 126.992188 302.515625 126.992188 302.289062 126.992188 302.050781 L 126.992188 78.183594 C 126.960938 77.890625 126.398438 71.828125 128.617188 68.519531 C 129.25 67.472656 130.296875 66.734375 131.488281 66.476562 L 268.007812 43.84375 L 364.496094 27.832031 L 364.644531 27.832031 L 319.738281 16.195312 L 245.472656 27.378906 L 244.597656 27.507812 L 243.039062 27.742188 L 242.917969 27.742188 L 210.695312 32.589844 L 88.78125 50.871094 L 88.613281 50.957031 C 86.503906 52.40625 84.6875 54.25 83.289062 56.386719 C 83.179688 56.566406 83.050781 56.722656 82.933594 56.902344 C 82.210938 57.996094 81.550781 59.117188 80.949219 60.269531 L 80.949219 302.496094 L 91.117188 305.804688 L 92.074219 306.121094 Z M 331.492188 76.882812 C 333.375 78.539062 334.324219 81.25 334.324219 84.945312 C 334.324219 94.984375 332.46875 215.644531 332.46875 216.855469 C 332.429688 217.199219 331.441406 223.695312 326.609375 225.625 C 322.695312 227.203125 218.820312 251.304688 184.75 259.1875 L 184.523438 259.1875 L 183.132812 259.511719 L 174.226562 261.550781 C 173.8125 261.679688 173.386719 261.738281 172.953125 261.738281 C 171.988281 261.738281 171.050781 261.445312 170.261719 260.890625 C 168.722656 259.671875 167.640625 257.964844 167.195312 256.054688 C 167.039062 255.511719 166.898438 254.941406 166.773438 254.328125 C 166.339844 251.972656 166.140625 249.570312 166.179688 247.175781 C 166.179688 235.273438 165.203125 171.292969 164.679688 136.648438 C 164.472656 123.542969 164.335938 114.664062 164.335938 114.347656 C 164.335938 113.875 164.40625 102.878906 170.300781 101.863281 L 211.214844 94.847656 L 326.277344 75.101562 C 327.320312 75.011719 328.367188 75.160156 329.34375 75.523438 L 329.570312 75.601562 C 329.925781 75.75 330.269531 75.929688 330.59375 76.125 C 330.839844 76.28125 331.089844 76.460938 331.316406 76.648438 L 331.421875 76.734375 Z M 326.167969 224.601562 C 330.457031 222.886719 331.394531 216.757812 331.394531 216.6875 C 331.402344 215.535156 333.238281 94.867188 333.238281 84.84375 C 333.238281 81.457031 332.398438 79.003906 330.753906 77.542969 L 330.644531 77.457031 C 329.472656 76.480469 327.953125 75.996094 326.433594 76.125 L 257.109375 88.039062 L 209.804688 96.15625 C 188.425781 99.824219 172.195312 102.601562 170.460938 102.898438 C 169.265625 103.152344 168.222656 103.894531 167.609375 104.945312 C 165.449219 108.199219 165.402344 114.160156 165.402344 114.328125 C 165.410156 114.769531 165.550781 123.246094 165.738281 135.789062 C 166.230469 170.1875 167.253906 235.175781 167.253906 247.195312 C 167.253906 255.707031 169.207031 258.851562 170.84375 260.015625 C 171.730469 260.65625 172.867188 260.851562 173.910156 260.558594 L 184.136719 258.183594 L 185.519531 257.867188 L 185.746094 257.808594 C 220.890625 249.660156 322.421875 226.089844 326.167969 224.601562 Z M 155.707031 295.125 L 229.785156 278.441406 L 229.785156 294.796875 L 229.398438 294.886719 L 154.101562 313.019531 L 154.101562 295.5 L 155.472656 295.183594 Z M 228.738281 279.730469 L 155.097656 296.316406 L 155.097656 311.71875 L 225.476562 294.796875 L 228.019531 294.1875 L 228.738281 294.011719 Z M 228.738281 279.730469 " fill-opacity="1" fill-rule="nonzero"/></g></svg>